<svg width="24" height="25" viewBox="0 0 24 25" fill="none" xmlns="http://www.w3.org/2000/svg">
<g clip-path="url(#clip0_1_474)">
<path d="M19.65 0.545166H1.35C1.04765 0.545166 0.75769 0.665273 0.543898 0.879064C0.330107 1.09286 0.21 1.38282 0.21 1.68517V19.9852C0.21 20.2875 0.330107 20.5775 0.543898 20.7913C0.75769 21.0051 1.04765 21.1252 1.35 21.1252H11.2V13.1252H8.52V10.0452H11.2V7.75517C11.1477 7.21236 11.2144 6.66468 11.3955 6.15031C11.5766 5.63593 11.8677 5.16724 12.2485 4.77691C12.6294 4.38658 13.0907 4.084 13.6005 3.89027C14.1102 3.69653 14.6561 3.6163 15.2 3.65517C15.995 3.65066 16.7895 3.69072 17.58 3.77517V6.54517L16 6.56517C14.7 6.56517 14.46 7.16517 14.46 8.06517V10.0652H17.53L17.13 13.1752H14.41V21.1752H19.65C19.9523 21.1752 20.2423 21.0551 20.4561 20.8413C20.6699 20.6275 20.79 20.3375 20.79 20.0352V1.68517C20.79 1.38282 20.6699 1.09286 20.4561 0.879064C20.2423 0.665273 19.9523 0.545166 19.65 0.545166Z" fill="white"/>
</g>
<defs>
<clipPath id="clip0_1_474">
<rect width="24" height="24" fill="white" transform="translate(0 0.335205)"/>
</clipPath>
</defs>
</svg>
