<svg width="24" height="25" viewBox="0 0 24 25" fill="none" xmlns="http://www.w3.org/2000/svg">
<g clip-path="url(#clip0_1_454)">
<mask id="mask0_1_454" style="mask-type:luminance" maskUnits="userSpaceOnUse" x="1" y="1" width="22" height="22">
<path d="M22.623 1.33521H1V22.9582H22.623V1.33521Z" fill="white"/>
</mask>
<g mask="url(#mask0_1_454)">
<path d="M22.054 5.06921C21.7754 4.35064 21.3501 3.69805 20.8051 3.1531C20.2602 2.60815 19.6076 2.1828 18.889 1.90421C18.048 1.59114 17.1602 1.42211 16.263 1.40421C15.111 1.34721 14.744 1.33521 11.812 1.33521C8.88 1.33521 8.506 1.34721 7.355 1.40221C6.45966 1.41936 5.57373 1.58843 4.735 1.90221C4.01149 2.17259 3.35683 2.59982 2.818 3.15321C2.26947 3.69523 1.84356 4.34859 1.569 5.06921C1.25291 5.90729 1.08376 6.79362 1.069 7.68921C1.018 8.84121 1 9.20821 1 12.1472C1 15.0862 1.012 15.4472 1.067 16.6042C1.08416 17.4995 1.25323 18.3855 1.567 19.2242C1.83817 19.9456 2.26535 20.5981 2.818 21.1352C3.35838 21.6857 4.0122 22.112 4.734 22.3842C5.57291 22.6974 6.45873 22.8664 7.354 22.8842C8.505 22.9392 8.872 22.9512 11.811 22.9512C14.75 22.9512 15.111 22.9392 16.268 22.8842C17.1652 22.8663 18.053 22.6973 18.894 22.3842C19.6125 22.1113 20.263 21.6851 20.8 21.1352C21.3485 20.5932 21.7744 19.9398 22.049 19.2192C22.3598 18.3797 22.5288 17.4942 22.549 16.5992C22.598 15.4482 22.616 15.0812 22.616 12.1422C22.616 9.20321 22.604 8.8422 22.549 7.6852C22.5288 6.79018 22.3598 5.90476 22.049 5.06521M20.609 16.5062C20.5991 17.1918 20.4729 17.8708 20.236 18.5142C20.0626 18.9835 19.7865 19.4082 19.428 19.7572C19.0801 20.117 18.6551 20.3933 18.185 20.5652C17.5417 20.8028 16.8627 20.929 16.177 20.9382C15.038 20.9872 14.695 20.9992 11.812 20.9992C8.929 20.9992 8.586 20.9872 7.447 20.9382C6.7614 20.9283 6.08244 20.8021 5.439 20.5652C4.97101 20.391 4.54775 20.1146 4.2 19.7562C3.84148 19.4072 3.56543 18.9825 3.392 18.5132C3.15438 17.87 3.02823 17.1909 3.019 16.5052C2.97 15.3662 2.958 15.0232 2.958 12.1402C2.958 9.25721 2.97 8.91421 3.019 7.77521C3.02893 7.0896 3.15505 6.41064 3.392 5.76721C3.56556 5.29824 3.8416 4.87392 4.2 4.52521C4.54901 4.16668 4.97367 3.89063 5.443 3.71721C6.08625 3.47958 6.76533 3.35344 7.451 3.34421C8.451 3.29521 8.835 3.28321 10.851 3.28321H11.818C14.701 3.28321 15.044 3.29521 16.183 3.34421C16.8686 3.35416 17.5476 3.48028 18.191 3.71721C18.6603 3.89063 19.085 4.16668 19.434 4.52521C19.7925 4.87421 20.0686 5.29888 20.242 5.76821C20.4796 6.41145 20.6058 7.09053 20.615 7.77621C20.664 8.91521 20.676 9.2582 20.676 12.1412C20.676 15.0242 20.664 15.3672 20.615 16.5062" fill="white"/>
<path d="M17.581 5.07617C17.3239 5.07617 17.0726 5.15242 16.8588 5.29526C16.645 5.43811 16.4784 5.64114 16.38 5.87868C16.2816 6.11623 16.2558 6.37762 16.306 6.62979C16.3561 6.88197 16.48 7.11361 16.6618 7.29541C16.8436 7.47722 17.0752 7.60103 17.3274 7.6512C17.5796 7.70136 17.8409 7.67561 18.0785 7.57722C18.316 7.47882 18.5191 7.3122 18.6619 7.09842C18.8048 6.88463 18.881 6.63329 18.881 6.37617C18.881 6.03139 18.744 5.70073 18.5002 5.45694C18.2564 5.21314 17.9258 5.07617 17.581 5.07617Z" fill="white"/>
<path d="M11.812 6.59424C10.7149 6.59424 9.64245 6.91956 8.73025 7.52908C7.81805 8.13859 7.10708 9.00491 6.68724 10.0185C6.2674 11.0321 6.15755 12.1474 6.37159 13.2234C6.58562 14.2994 7.11392 15.2878 7.88968 16.0636C8.66544 16.8393 9.65383 17.3676 10.7298 17.5816C11.8059 17.7957 12.9212 17.6858 13.9347 17.266C14.9483 16.8462 15.8147 16.1352 16.4242 15.223C17.0337 14.3108 17.359 13.2383 17.359 12.1412C17.3591 11.4128 17.2157 10.6914 16.937 10.0183C16.6583 9.34528 16.2497 8.73373 15.7346 8.21862C15.2195 7.70351 14.608 7.29493 13.9349 7.01621C13.2618 6.7375 12.5405 6.59411 11.812 6.59424ZM11.812 15.7402C11.1 15.7402 10.404 15.5291 9.81195 15.1335C9.21993 14.738 8.75851 14.1757 8.48603 13.5179C8.21356 12.8601 8.14227 12.1362 8.28118 11.4379C8.42008 10.7396 8.76295 10.0981 9.26642 9.59465C9.76989 9.09118 10.4113 8.74832 11.1097 8.60941C11.808 8.47051 12.5318 8.54179 13.1897 8.81427C13.8475 9.08675 14.4097 9.54817 14.8053 10.1402C15.2009 10.7322 15.412 11.4282 15.412 12.1402C15.412 13.095 15.0327 14.0107 14.3576 14.6858C13.6825 15.361 12.7668 15.7402 11.812 15.7402Z" fill="white"/>
</g>
</g>
<defs>
<clipPath id="clip0_1_454">
<rect width="24" height="24" fill="white" transform="translate(0 0.335205)"/>
</clipPath>
</defs>
</svg>
