<svg width="24" height="25" viewBox="0 0 24 25" fill="none" xmlns="http://www.w3.org/2000/svg">
<g clip-path="url(#clip0_1_478)">
<path d="M17.3354 11.7691C17.3361 11.9158 17.2992 12.0601 17.228 12.1884C17.1569 12.3166 17.054 12.4244 16.9292 12.5014L9.99385 16.8091C9.85843 16.9024 9.69667 16.9499 9.53231 16.9445C9.3864 16.9441 9.24277 16.9082 9.11385 16.8399C8.97821 16.7638 8.86517 16.653 8.78626 16.519C8.70735 16.3849 8.66537 16.2324 8.66462 16.0768V7.41221C8.66645 7.25771 8.70894 7.10641 8.7878 6.97354C8.86666 6.84067 8.97911 6.73091 9.11385 6.65528C9.24721 6.57682 9.39912 6.53545 9.55385 6.53545C9.70857 6.53545 9.86049 6.57682 9.99385 6.65528L16.9292 10.963C17.0644 11.0472 17.1738 11.1669 17.2454 11.3091C17.317 11.4513 17.3482 11.6104 17.3354 11.7691ZM24.2646 11.7691C24.3355 9.80083 24.1952 7.83061 23.8462 5.89221C23.7222 5.25793 23.4016 4.67879 22.9299 4.23696C22.4583 3.79512 21.8595 3.51302 21.2185 3.43067C18.1992 3.15252 15.1668 3.04363 12.1354 3.10451C9.11195 3.04893 6.08778 3.16193 3.07692 3.44298C2.43924 3.52893 1.84454 3.81264 1.3765 4.25419C0.908456 4.69574 0.590617 5.27291 0.467693 5.90451C0.0942897 7.83592 -0.062577 9.80295 5.52011e-07 11.7691C-0.0710761 13.7374 0.0692138 15.7077 0.418462 17.6461C0.547592 18.278 0.869758 18.8542 1.34046 19.2951C1.81116 19.7361 2.40717 20.02 3.04615 20.1076C6.06722 20.3898 9.1017 20.5028 12.1354 20.4461C15.167 20.5028 18.1995 20.3898 21.2185 20.1076C21.8573 20.0228 22.4533 19.7397 22.9226 19.298C23.3918 18.8564 23.7106 18.2785 23.8338 17.6461C24.1933 15.7089 24.3377 13.738 24.2646 11.7691Z" fill="white"/>
</g>
<defs>
<clipPath id="clip0_1_478">
<rect width="24" height="24" fill="white" transform="translate(0 0.335205)"/>
</clipPath>
</defs>
</svg>
