<svg width="24" height="25" viewBox="0 0 24 25" fill="none" xmlns="http://www.w3.org/2000/svg">
<g clip-path="url(#clip0_1_466)">
<path d="M4.674 7.13412H0.254V20.4061H4.674V7.13512V7.13412ZM4.955 3.03612C4.942 1.73512 4.005 0.745117 2.491 0.745117C0.991 0.745117 0 1.73512 0 3.03512C0 4.30712 0.95 5.32512 2.438 5.32512H2.464C4.004 5.32512 4.969 4.30812 4.955 3.03612ZM20.571 12.7991C20.571 8.72812 18.401 6.82612 15.495 6.82612C13.112 6.82612 12.067 8.15212 11.491 9.06312H11.518V7.13412H7.112C7.112 7.13412 7.165 8.38012 7.112 20.4061H11.518V13.0001C11.518 12.5981 11.558 12.2101 11.665 11.9151C11.987 11.1251 12.71 10.3081 13.929 10.3081C15.522 10.3081 16.165 11.5271 16.165 13.3081V20.4061H20.571V12.7991Z" fill="white"/>
</g>
<defs>
<clipPath id="clip0_1_466">
<rect width="24" height="24" fill="white" transform="translate(0 0.335205)"/>
</clipPath>
</defs>
</svg>
