<svg width="24" height="25" viewBox="0 0 24 25" fill="none" xmlns="http://www.w3.org/2000/svg">
<g clip-path="url(#clip0_1_470)">
<path d="M21.697 4.72815C20.9044 5.0745 20.0644 5.30034 19.205 5.39815C20.1083 4.86133 20.7846 4.01326 21.107 3.01315C20.2594 3.51786 19.3306 3.87145 18.362 4.05815C17.957 3.62559 17.4672 3.28106 16.9232 3.04605C16.3792 2.81104 15.7926 2.69057 15.2 2.69215C14.6318 2.69189 14.0692 2.80361 13.5442 3.02092C13.0192 3.23822 12.5422 3.55687 12.1405 3.95862C11.7387 4.36038 11.4201 4.83738 11.2028 5.36235C10.9855 5.88733 10.8737 6.44998 10.874 7.01815C10.874 7.35315 10.914 7.68815 10.981 8.00815C9.26005 7.92088 7.57665 7.47287 6.03998 6.69317C4.50331 5.91346 3.14768 4.81947 2.061 3.48215C1.67317 4.14413 1.46979 4.89794 1.472 5.66515C1.472 7.16515 2.236 8.49115 3.401 9.26815C2.71477 9.24154 2.04454 9.05308 1.445 8.71815V8.77215C1.44372 9.77184 1.78871 10.7411 2.42131 11.5152C3.05391 12.2893 3.93508 12.8203 4.915 13.0182C4.5427 13.1149 4.15967 13.1643 3.775 13.1652C3.495 13.1652 3.227 13.1382 2.959 13.0982C3.23662 13.9573 3.7757 14.7083 4.50091 15.2461C5.22613 15.784 6.10125 16.0819 7.004 16.0982C5.47223 17.3003 3.58014 17.9513 1.633 17.9462C1.271 17.9462 0.937001 17.9332 0.588001 17.8932C2.5693 19.1671 4.87648 19.8415 7.232 19.8352C15.188 19.8352 19.54 13.2452 19.54 7.52715C19.54 7.33915 19.54 7.15215 19.527 6.96415C20.3709 6.34616 21.1046 5.59022 21.697 4.72815Z" fill="white"/>
</g>
<defs>
<clipPath id="clip0_1_470">
<rect width="24" height="24" fill="white" transform="translate(0 0.335205)"/>
</clipPath>
</defs>
</svg>
